<svg id="Layer_1" data-name="Layer 1" xmlns="http://www.w3.org/2000/svg" viewBox="0 0 1000 1000"><defs><style>.cls-1{fill:#fff;}</style></defs><path class="cls-1" d="M713.42,640.17a23.32,23.32,0,0,1-7-45.55C816.52,559.68,818.14,532.75,819,518.28c1.36-22.58-16.25-52.06-23.14-61.51a23.32,23.32,0,0,1,37.59-27.61c3.56,4.84,34.72,48.51,32.1,91.93-3.17,52.79-43.86,85.87-145.08,118A23.46,23.46,0,0,1,713.42,640.17Z"/><path class="cls-1" d="M397.43,722.48a23.31,23.31,0,0,1-14.49-41.59c47.8-37.84,79.69-71.81,100.86-101-11.74-5.63-23.93-14.66-30.5-29-6.09-13.29-9.12-35.43,11.05-65.43,28.85-42.89,58.08-52.82,69.31-55.1a29.13,29.13,0,0,1,34,20.61c3,10.2,9.65,43.77-10.84,94.06q41.91-1,67.12-21.94c32.31-26.79,34.46-70.76,34.48-71.21A23.32,23.32,0,0,1,705,453.4c-.08,2.62-2.48,64.66-50.79,105.15-30.5,25.57-71.33,36.42-121.62,32.39-23.78,36.91-61.52,79.63-120.73,126.51A23.26,23.26,0,0,1,397.43,722.48ZM524.06,487c-6.14,5.27-13.34,13-21,24.44s-8.28,18-7.37,20c1.42,3.08,6.75,6,12.54,8.17C518.93,517.54,522.9,499.79,524.06,487Z"/><path class="cls-1" d="M380.05,597.21a23.89,23.89,0,0,1-3.46-.25A23.31,23.31,0,0,1,357,570.45c15.47-103.8,21.18-268.75,21.24-270.4a23,23,0,0,1,24.09-22.52,23.3,23.3,0,0,1,22.5,24.09c-.22,6.86-5.83,169.25-21.71,275.71A23.33,23.33,0,0,1,380.05,597.21Z"/><path class="cls-1" d="M157.62,722.48a23.31,23.31,0,0,1-13.73-42.17c128.74-93.6,134.54-212.85,134.72-217.89.48-12.82,11.26-23.14,24.07-22.49a23.27,23.27,0,0,1,22.55,23.92c-.16,5.94-5.87,146.54-153.92,254.18A23.18,23.18,0,0,1,157.62,722.48Z"/><path class="cls-1" d="M553.11,673.65a23.31,23.31,0,0,1-.86-46.61c.36,0,37.11-1.54,89-12.79a23.32,23.32,0,0,1,9.87,45.58C594.91,672,555.63,673.57,554,673.64Z"/></svg>